<svg width="48" height="49" viewBox="0 0 48 49" fill="none" xmlns="http://www.w3.org/2000/svg">
<rect y="0.521973" width="48" height="48" rx="24" fill="white"/>
<rect y="0.521973" width="48" height="48" rx="24" fill="#5C87B3"/>
<path d="M30.8567 16.3113C31.5758 15.5922 32.7416 15.5922 33.4607 16.3113C34.1709 17.0215 34.1797 18.1677 33.4868 18.8886L23.6857 31.14C23.6716 31.1576 23.6565 31.1745 23.6405 31.1905C22.9214 31.9096 21.7556 31.9096 21.0365 31.1905L14.5393 24.6934C13.8202 23.9743 13.8202 22.8085 14.5393 22.0894C15.2584 21.3703 16.4242 21.3703 17.1433 22.0894L22.283 27.2291L30.8079 16.3664C30.823 16.347 30.8393 16.3286 30.8567 16.3113Z" fill="#E6E6EB"/>
</svg>
